<svg width="44" height="12" viewBox="0 0 44 12" fill="none" xmlns="http://www.w3.org/2000/svg">
<path d="M0.024 9L3.864 0.599999H4.74L8.58 9H7.644L4.116 1.116H4.476L0.948 9H0.024ZM1.536 6.756L1.8 6.036H6.684L6.948 6.756H1.536ZM9.96956 9V0.599999H13.1136C13.8256 0.599999 14.4376 0.716 14.9496 0.948C15.4616 1.172 15.8536 1.5 16.1256 1.932C16.4056 2.356 16.5456 2.872 16.5456 3.48C16.5456 4.072 16.4056 4.584 16.1256 5.016C15.8536 5.44 15.4616 5.768 14.9496 6C14.4376 6.224 13.8256 6.336 13.1136 6.336H10.4616L10.8576 5.928V9H9.96956ZM15.7056 9L13.5456 5.952H14.5056L16.6776 9H15.7056ZM10.8576 6L10.4616 5.58H13.0896C13.9296 5.58 14.5656 5.396 14.9976 5.028C15.4376 4.66 15.6576 4.144 15.6576 3.48C15.6576 2.808 15.4376 2.288 14.9976 1.92C14.5656 1.552 13.9296 1.368 13.0896 1.368H10.4616L10.8576 0.948V6Z" fill="#C5BCB3"/>
<path d="M21.7821 11.328V0.0959995H22.5741V11.328H21.7821ZM29.242 4.356H33.682V5.112H29.242V4.356ZM29.338 8.232H34.39V9H28.45V0.599999H34.21V1.368H29.338V8.232ZM36.4774 9V0.599999H37.2094L43.0054 7.896H42.6214V0.599999H43.4974V9H42.7654L36.9814 1.704H37.3654V9H36.4774Z" fill="#FF8500"/>
</svg>
